<svg width="366" height="399" viewBox="0 0 366 399" fill="none" xmlns="http://www.w3.org/2000/svg">
<g clip-path="url(#clip0_156_673)">
<rect width="366" height="399" fill="#3021AF"/>
<path d="M2.03514 114.61C1.87286 106.362 5.12521 97.9646 7.22807 90.3774C8.85086 84.6871 10.7306 79.341 15.173 75.1492C23.3545 67.2448 36.4315 58.0443 45.3569 52.3C50.1644 49.2692 54.1132 47.5006 58.7922 46.3599C64.1204 45.0638 70.3343 44.2943 75.9262 43.0186C84.5473 41.0408 92.9452 37.9627 101.309 35.6744C108.152 33.7574 114.325 31.5771 120.668 28.0333C134.435 20.5744 148.661 11.5292 162.522 4.52933C166.633 2.7338 170.67 1.52552 174.68 2.25454C181.435 3.51681 181.299 9.94968 177.979 14.5465C173.598 20.8376 166.775 25.1847 160.528 29.6601C148.472 37.713 136.287 44.3011 125.036 52.6645C119.802 56.5526 113.122 60.4406 111.1 66.5765C110.072 70.1068 113.419 71.4096 116.225 70.7548C119.011 70.2756 122.392 68.21 125.786 65.9217C136.524 58.6654 146.937 50.1062 157.64 42.5055C162.833 38.874 168.155 35.1344 173.375 33.1094C180.143 30.2541 191.509 30.0651 194.322 38.3002C196.52 47.3926 187.135 53.6905 180.272 57.8823C172.137 62.7019 163.503 68.453 155.477 72.6516C152.13 75.6689 89.6861 97.7283 120.566 95.3455C126.828 94.873 133.258 93.9685 139.066 91.9907C154.564 86.3949 169.21 74.7712 184.917 69.9111C192.618 67.4743 205.168 65.5235 209.84 74.1366C213.478 84.7208 197.399 92.7265 189.589 96.7833C175.613 103.979 159.277 108.596 144.056 113.483C140.811 114.901 96.7858 125.633 119.119 125.957C126.605 126.092 138.451 125.377 146.599 125.289C153.212 125.188 158.432 125.242 163.679 123.527C170.231 121.408 175.897 117.324 182.199 114.664C189.4 111.458 196.554 109.156 204.58 108.036C221.281 105.383 231.809 109.872 223.397 127.469C217.663 138.688 202.409 141.091 190.346 145.101C183.984 146.971 177.844 149.779 171.252 150.886C164.943 151.959 158.384 151.061 152.008 151.696C141.527 152.681 130.506 157.285 120.377 161.092C115.475 163.124 108.855 166.188 111.492 171.98C116.327 183.927 144.313 204.549 152.373 219.683C155.666 225.393 155.544 234.331 148.627 234.898C141.331 234.783 135.077 229.97 127.335 225.657C121.946 222.464 115.597 218.454 110.972 214.877C106.705 211.61 103.155 208.376 98.6993 205.339C80.0102 192.487 49.5626 184.373 32.5504 168.605C26.2553 163.022 18.8445 158.149 12.9349 152.134C9.56759 148.672 7.9448 143.764 6.49106 138.364C4.62485 131.108 2.15685 122.515 2.04191 114.786V114.624L2.03514 114.61Z" fill="#3021AF" stroke="white" stroke-width="6" stroke-miterlimit="10"/>
<path d="M229.729 145.876C232.902 146.322 235.811 147.789 238.96 149.999C240.56 151.122 242.172 152.399 243.898 153.792C245.589 155.157 247.397 156.638 249.308 158.094C254.483 162.275 260.442 167.4 264.604 171.784L264.615 171.795C268.327 175.664 271.888 180.047 276.158 184.005V184.006C285.274 192.527 297.857 200.045 309.65 207.641C321.635 215.36 332.884 223.201 340.217 232.557L340.238 232.584L340.261 232.612C343.203 236.19 346.499 239.613 349.585 242.934C352.517 246.089 355.302 249.193 357.695 252.476L358.169 253.135C360.474 256.436 361.325 260.923 361.883 266.613L361.991 267.769C362.654 276.234 363.65 285.637 362.387 293.799L362.386 293.801L362.359 293.976L362.362 293.977C361.732 298.198 360.237 302.457 358.379 306.767C356.447 311.249 354.437 315.128 352.466 319.508C349.674 325.589 346.913 330.668 342.005 334.297L341.991 334.308L341.978 334.318C331.92 341.932 316.341 350.457 305.691 355.744C300.505 358.254 296.423 359.619 291.922 360.316L291.016 360.447C288.14 360.83 285.03 361.048 281.778 361.266C278.562 361.481 275.203 361.696 271.981 362.075H271.978C267.032 362.662 262.121 363.568 257.317 364.506C252.481 365.451 247.791 366.419 243.134 367.175L243.126 367.176L243.118 367.178C235.268 368.494 227.972 370.222 220.202 373.501C212.037 376.833 203.67 380.594 195.385 384.253C187.102 387.911 178.883 391.474 170.878 394.487C166.395 395.889 162.7 396.48 159.525 395.603L159.218 395.513C157.941 395.106 157.284 394.559 156.938 394.099C156.594 393.642 156.396 393.057 156.399 392.286C156.407 390.628 157.378 388.361 159.262 386.363L159.279 386.345L159.295 386.327C164.764 380.336 172.338 376.601 180.12 372.271C187.297 368.564 194.427 365.271 201.57 361.867C208.696 358.473 215.798 354.985 222.751 350.955C225.715 349.239 229.574 347.276 232.874 345.043C236.248 342.76 239.541 339.891 241.538 335.945L241.561 335.9L241.582 335.854C242.213 334.494 242.504 333.052 242.268 331.621C242.027 330.166 241.283 328.987 240.312 328.134C238.51 326.55 236.001 326.1 233.881 326.328C231.884 326.464 229.78 327.112 227.781 327.911C225.736 328.729 223.6 329.788 221.534 330.862L221.526 330.866C214.991 334.286 208.498 338.074 202.057 341.877C195.602 345.688 189.212 349.507 182.788 353.055C176.418 356.516 170.323 359.824 164.732 361.326L164.69 361.337L164.648 361.35C161.188 362.389 156.749 362.626 153.149 361.618C149.684 360.648 147.453 358.716 146.908 355.576C146.711 351.744 148.628 348.562 151.961 345.692C154.949 343.118 158.784 341.058 162.438 339.299L163.99 338.563C173.863 334.099 183.944 328.891 193.286 325.234L193.625 325.101L193.922 324.892C193.834 324.954 194.015 324.832 194.797 324.532C195.471 324.273 196.379 323.957 197.503 323.59C199.747 322.857 202.711 321.96 206.092 320.95C212.818 318.939 221.14 316.493 228.276 314.103C231.844 312.908 235.169 311.71 237.88 310.57C240.468 309.481 242.881 308.293 244.305 307.031C244.905 306.498 246.164 305.239 246.054 303.372C245.928 301.246 244.221 300.223 243.338 299.822C242.312 299.356 241.015 299.067 239.593 298.868C238.124 298.663 236.315 298.527 234.149 298.455H234.15C227.21 298.215 219.82 298.432 212.833 300.005L212.806 300.012L212.778 300.018C203.628 302.257 194.459 306.24 185.604 309.97C176.637 313.747 167.965 317.28 159.397 318.956L159.387 318.958L159.377 318.96C155.162 319.815 149.929 320.342 145.472 319.55C141.156 318.783 138.127 316.921 136.851 313.453C136.327 309.327 139.113 305.594 144.438 302.074C149.719 298.582 156.377 296.069 161.048 294.25L161.049 294.251C177.159 288.066 195.281 284.972 212.747 281.361L212.895 281.329L213.039 281.284C213.043 281.283 213.064 281.277 213.107 281.266C213.155 281.253 213.219 281.237 213.301 281.218C213.466 281.18 213.68 281.134 213.945 281.08C214.476 280.973 215.162 280.845 215.987 280.697C217.64 280.4 219.766 280.037 222.174 279.619C226.959 278.789 232.803 277.748 237.793 276.643C240.284 276.091 242.616 275.511 244.521 274.919C245.474 274.623 246.363 274.312 247.133 273.983C247.862 273.671 248.66 273.27 249.311 272.743C249.822 272.33 251.142 271.098 250.835 269.159C250.551 267.367 249.085 266.52 248.482 266.213C247.026 265.473 244.689 264.993 241.717 264.613H241.716C233.704 263.557 220.366 262.861 211.921 262.005L211.914 262.004L211.906 262.003C204.932 261.331 198.793 260.547 192.263 261.941C188.258 262.779 184.47 264.221 180.9 265.657C177.256 267.123 173.893 268.559 170.417 269.602L170.36 269.619C162.205 272.241 154.347 273.862 145.845 274.121L145.816 274.122L145.787 274.123C141.323 274.345 137.489 274.123 134.449 273.451C131.376 272.773 129.401 271.701 128.289 270.464C127.281 269.343 126.708 267.786 127.064 265.343C127.438 262.787 128.832 259.355 131.787 254.914C135.362 249.849 140.881 246.976 147.554 245.015C150.888 244.035 154.423 243.306 158.046 242.63C161.603 241.966 165.323 241.339 168.805 240.584C172.471 239.918 176.195 238.97 179.656 238.19C183.214 237.388 186.633 236.73 190.037 236.529H190.042C193.248 236.334 196.487 236.645 199.952 237.049C203.342 237.445 207.013 237.94 210.708 237.979V237.978C222.685 238.165 235.923 234.227 247.32 231.282L247.367 231.27L247.414 231.256C250.19 230.442 254.005 229.262 256.885 227.231C258.365 226.187 259.772 224.803 260.626 222.954C261.491 221.081 261.672 218.976 261.112 216.724C260.25 212.697 257.792 208.066 254.8 203.337C251.765 198.541 247.956 193.309 244.136 188.059C240.289 182.772 236.417 177.449 233.142 172.346C229.851 167.219 227.277 162.488 225.937 158.402L225.921 158.352L225.902 158.303C224.875 155.502 224.762 152.029 225.615 149.434C226.033 148.163 226.629 147.26 227.29 146.702C227.876 146.208 228.638 145.875 229.729 145.876Z" fill="#3021AF" stroke="#F9F9F9" stroke-width="6"/>
<path d="M218.59 244.942C233.169 244.942 244.987 226.22 244.987 203.125C244.987 180.03 233.169 161.308 218.59 161.308C204.011 161.308 192.192 180.03 192.192 203.125C192.192 226.22 204.011 244.942 218.59 244.942Z" fill="#F9F9F9"/>
<path d="M215.777 234.877C228.802 234.877 239.361 219.51 239.361 200.553C239.361 181.596 228.802 166.229 215.777 166.229C202.752 166.229 192.192 181.596 192.192 200.553C192.192 219.51 202.752 234.877 215.777 234.877Z" fill="#F9F9F9" stroke="#F9F9F9" stroke-width="6" stroke-miterlimit="10"/>
<path d="M218.5 237C227.06 237 237.5 215.479 237.5 202.5C237.5 189.521 227.06 172 218.5 172C209.94 172 197 184.021 197 197C197 209.979 209.94 237 218.5 237Z" fill="#3021AF" stroke="#3021AF" stroke-width="6" stroke-miterlimit="10"/>
<path d="M165.788 228.877C180.367 228.877 192.186 210.154 192.186 187.06C192.186 163.965 180.367 145.242 165.788 145.242C151.209 145.242 139.391 163.965 139.391 187.06C139.391 210.154 151.209 228.877 165.788 228.877Z" fill="#F9F9F9" stroke="#F9F9F9" stroke-width="6" stroke-miterlimit="10"/>
<path d="M162.975 218.812C176.001 218.812 186.56 203.445 186.56 184.488C186.56 165.531 176.001 150.163 162.975 150.163C149.95 150.163 139.391 165.531 139.391 184.488C139.391 203.445 149.95 218.812 162.975 218.812Z" fill="#F9F9F9" stroke="#F9F9F9" stroke-width="6" stroke-miterlimit="10"/>
<path d="M166.716 226C176.457 226 188 193.172 188 185.014C188 176.856 176.457 148 166.716 148C156.975 148 142 173.729 142 185.014C142 192.688 156.975 226 166.716 226Z" fill="#3021AF" stroke="#3021AF" stroke-width="6" stroke-miterlimit="10"/>
<path d="M217.944 198.247C217.986 198.289 218.028 199.99 218.364 202.585C218.489 203.544 219.29 203.596 219.722 203.403C220.154 203.21 220.389 202.722 220.208 202.701C219.315 202.598 218.16 205.196 217.262 207.241C217.004 207.707 217.151 207.011 217.232 205.507C217.313 204.004 217.325 201.715 217.403 199.119" stroke="#EDEDED" stroke-width="18" stroke-linecap="round"/>
<path d="M165.607 186.174C165.607 186.132 165.611 189.187 165.697 193.528C165.722 194.795 165.941 194.15 166.036 193.34C166.156 191.569 165.913 189.799 165.454 188.315C165.264 187.614 165.161 187.017 164.778 185.315" stroke="#EDEDED" stroke-width="18" stroke-linecap="round"/>
</g>
<defs>
<clipPath id="clip0_156_673">
<rect width="366" height="399" fill="white"/>
</clipPath>
</defs>
</svg>
