<svg width="156" height="102" viewBox="0 0 156 102" fill="none" xmlns="http://www.w3.org/2000/svg">
<path d="M0.494141 102V0.59375H27.9775C35.3525 0.59375 40.7109 2.39909 44.0527 6.00977C47.4329 9.58203 49.123 15.4974 49.123 23.7559V28.1924C49.123 32.9554 48.2588 36.8158 46.5303 39.7734C44.8402 42.7311 42.2474 44.6709 38.752 45.5928C43.3229 46.7451 46.3766 49.4531 47.9131 53.7168C49.488 57.9421 50.2754 63.1084 50.2754 69.2158C50.2754 75.7842 49.6608 81.5267 48.4316 86.4434C47.2025 91.36 44.9746 95.182 41.748 97.9092C38.5215 100.636 33.9313 102 27.9775 102H0.494141ZM20.3145 38.7939H24.4629C26.3451 38.7939 27.555 38.0641 28.0928 36.6045C28.6305 35.1449 28.8994 33.3971 28.8994 31.3613V21.1631C28.8994 17.8981 27.459 16.2656 24.5781 16.2656H20.3145V38.7939ZM22.3311 84.1387C27.5934 84.1387 30.2246 81.6419 30.2246 76.6484V63.9727C30.2246 61.0918 29.7829 58.8255 28.8994 57.1738C28.0544 55.4837 26.4411 54.6387 24.0596 54.6387H20.3145V84.0234C21.1595 84.1003 21.8317 84.1387 22.3311 84.1387ZM56.959 102V0.59375H97.5215V20.1836H77.5859V39.9463H96.7148V59.0176H77.5859V82.2373H98.8467V102H56.959ZM105.588 102V0.59375H136.701C141.887 0.59375 145.805 1.78451 148.455 4.16602C151.105 6.50911 152.872 9.8125 153.756 14.0762C154.678 18.3014 155.139 23.2757 155.139 28.999C155.139 34.5303 154.428 38.9476 153.007 42.251C151.624 45.5544 148.993 47.8398 145.113 49.1074C148.301 49.7604 150.529 51.3545 151.797 53.8896C153.103 56.3864 153.756 59.6322 153.756 63.627V102H133.763V62.3018C133.763 59.3441 133.148 57.5195 131.919 56.8281C130.728 56.0983 128.788 55.7334 126.1 55.7334V102H105.588ZM126.215 38.1602H131.112C133.916 38.1602 135.318 35.1064 135.318 28.999C135.318 25.0426 135.011 22.4499 134.396 21.2207C133.782 19.9915 132.63 19.377 130.939 19.377H126.215V38.1602Z" fill="#F9F9F9"/>
</svg>
