<svg width="264" height="287" viewBox="0 0 264 287" fill="none" xmlns="http://www.w3.org/2000/svg">
<g clip-path="url(#clip0_187_572)">
<rect width="262.672" height="286.355" transform="translate(0.456543 0.644531)" fill="#333333"/>
<path d="M1.91728 82.8986C1.80082 76.9787 4.13497 70.9522 5.64416 65.5071C6.80881 61.4232 8.15786 57.5864 11.3461 54.578C17.2179 48.9051 26.603 42.3022 33.0085 38.1795C36.4588 36.0044 39.2928 34.7351 42.6509 33.9164C46.4748 32.9863 50.9344 32.434 54.9476 31.5184C61.1348 30.099 67.1619 27.8899 73.1646 26.2476C78.0756 24.8718 82.5061 23.3071 87.0579 20.7637C96.938 15.4106 107.148 8.91904 117.096 3.89534C120.047 2.60672 122.944 1.73956 125.821 2.26276C130.669 3.16867 130.572 7.78543 128.189 11.0845C125.045 15.5995 120.149 18.7194 115.665 21.9312C107.012 27.7107 98.2677 32.4388 90.1928 38.4411C86.4368 41.2315 81.6423 44.0219 80.1914 48.4255C79.4538 50.9592 81.8558 51.8942 83.8697 51.4243C85.869 51.0803 88.2954 49.5979 90.7314 47.9556C98.4375 42.7478 105.911 36.6051 113.593 31.1502C117.319 28.5439 121.138 25.8601 124.885 24.4067C129.742 22.3575 137.9 22.2219 139.918 28.1321C141.496 34.6576 134.76 39.1775 129.835 42.1859C123.997 45.6448 117.8 49.7723 112.04 52.7855C109.638 54.951 64.8229 70.7827 86.9851 69.0726C91.4787 68.7335 96.0937 68.0843 100.262 66.6649C111.385 62.6488 121.895 54.3067 133.168 50.8187C138.696 49.0699 147.702 47.6698 151.055 53.8513C153.666 61.4474 142.126 67.1929 136.522 70.1045C126.491 75.2686 114.767 78.5822 103.843 82.0896C101.514 83.107 69.9182 90.8096 85.9467 91.0422C91.3186 91.1391 99.8205 90.6255 105.668 90.5626C110.414 90.4899 114.16 90.5287 117.926 89.2982C122.628 87.777 126.695 84.8461 131.218 82.9374C136.386 80.6363 141.52 78.9843 147.28 78.1802C159.266 76.2763 166.822 79.4978 160.785 92.1273C156.67 100.179 145.722 101.903 137.065 104.781C132.499 106.123 128.092 108.138 123.361 108.933C118.833 109.703 114.126 109.059 109.55 109.514C102.029 110.221 94.1186 113.525 86.8493 116.258C83.3311 117.716 78.5803 119.915 80.4728 124.072C83.9425 132.646 104.028 147.446 109.812 158.307C112.176 162.406 112.088 168.82 107.124 169.227C101.888 169.144 97.399 165.69 91.8427 162.595C87.9751 160.303 83.4184 157.426 80.0992 154.858C77.0371 152.513 74.4894 150.193 71.2915 148.013C57.8786 138.789 36.0269 132.966 23.8175 121.649C19.2997 117.643 13.9811 114.145 9.73984 109.829C7.32319 107.344 6.15854 103.822 5.11521 99.9463C3.77587 94.7385 2.00463 88.5715 1.92213 83.0246V82.9083L1.91728 82.8986Z" fill="#333333" stroke="white" stroke-width="6" stroke-miterlimit="10"/>
<path d="M165.278 106.187C167.341 106.491 169.282 107.455 171.468 108.989C172.591 109.777 173.729 110.678 174.967 111.678C176.164 112.644 177.464 113.708 178.835 114.754V114.755C182.544 117.751 186.792 121.406 189.744 124.515L189.755 124.525C192.345 127.225 195 130.475 198.082 133.33C204.696 139.509 213.815 144.958 222.229 150.377C230.838 155.922 238.794 161.481 243.958 168.069L243.979 168.097L244.002 168.124C246.135 170.718 248.527 173.203 250.728 175.571C252.829 177.833 254.798 180.029 256.483 182.341L256.817 182.805C258.334 184.979 258.93 187.994 259.33 192.063L259.408 192.894C259.888 199.016 260.585 205.638 259.698 211.37V211.371L259.679 211.497L259.704 211.505L259.682 211.502C259.245 214.426 258.202 217.406 256.881 220.471C255.66 223.304 254.442 225.702 253.185 228.417L252.652 229.582C250.651 233.942 248.744 237.415 245.404 239.884L245.377 239.903C238.226 245.317 227.109 251.405 219.478 255.194C215.568 257.086 212.586 258.039 209.201 258.491C207.169 258.762 204.965 258.918 202.628 259.074C200.326 259.228 197.891 259.384 195.554 259.658H195.55C191.968 260.084 188.417 260.739 184.967 261.413C181.484 262.093 178.139 262.784 174.814 263.324L174.807 263.325L174.799 263.327C169.474 264.22 164.471 265.379 159.196 267.494L158.172 267.916C152.298 270.313 146.277 273.019 140.339 275.642C134.402 278.264 128.529 280.809 122.813 282.96C119.54 283.982 117.043 284.326 114.982 283.69C114.199 283.441 113.889 283.137 113.766 282.974C113.646 282.814 113.547 282.583 113.549 282.187C113.553 281.277 114.116 279.845 115.373 278.512L115.39 278.494L115.405 278.477C119.209 274.309 124.478 271.705 130.122 268.565C135.254 265.915 140.349 263.562 145.484 261.115C150.282 258.829 155.085 256.477 159.804 253.794L160.746 253.253C162.812 252.056 165.662 250.601 168.061 248.978C170.533 247.304 173.033 245.147 174.561 242.129L174.583 242.084L174.604 242.038C175.111 240.946 175.367 239.737 175.163 238.505C174.955 237.247 174.311 236.232 173.484 235.505C171.968 234.172 169.914 233.824 168.233 234.001C166.676 234.109 165.076 234.611 163.616 235.195C162.108 235.798 160.545 236.573 159.057 237.347L159.05 237.352C154.339 239.818 149.661 242.546 145.038 245.275C140.395 248.016 135.819 250.751 131.218 253.292C126.626 255.786 122.353 258.099 118.463 259.145L118.421 259.155L118.379 259.168C116.023 259.875 113.002 260.03 110.598 259.356C108.327 258.721 107.061 257.537 106.732 255.727C106.634 253.364 107.808 251.332 110.069 249.384C112.128 247.611 114.794 246.173 117.398 244.919L118.509 244.393C125.653 241.162 132.804 237.462 139.483 234.848L139.822 234.716L140.045 234.558C139.999 234.589 140.117 234.517 140.563 234.346C141.027 234.167 141.664 233.946 142.465 233.685C144.063 233.162 146.18 232.522 148.607 231.796C153.427 230.355 159.417 228.595 164.556 226.874C167.125 226.014 169.534 225.147 171.508 224.316C173.359 223.538 175.212 222.639 176.352 221.629C176.809 221.223 177.994 220.081 177.891 218.32C177.771 216.299 176.15 215.37 175.446 215.05C174.599 214.665 173.573 214.445 172.525 214.299C171.432 214.146 170.102 214.047 168.531 213.995H168.532C163.52 213.822 158.133 213.975 153.017 215.127L152.99 215.134L152.963 215.14C146.316 216.766 139.665 219.656 133.332 222.324C126.888 225.039 120.741 227.538 114.69 228.723L114.671 228.727C111.692 229.331 108.055 229.688 105.007 229.146C102.112 228.632 100.291 227.445 99.499 225.401C99.2447 222.986 100.864 220.604 104.584 218.145C108.288 215.696 112.978 213.925 116.355 212.609L116.354 212.608C127.83 208.205 140.736 206.002 153.312 203.401L153.461 203.371L153.604 203.326C153.605 203.326 153.757 203.285 154.17 203.201C154.541 203.126 155.027 203.036 155.617 202.93C156.8 202.717 158.32 202.458 160.052 202.157C163.485 201.561 167.698 200.812 171.3 200.014C173.097 199.616 174.797 199.194 176.197 198.759C176.897 198.541 177.565 198.308 178.153 198.056C178.701 197.821 179.359 197.497 179.916 197.046C180.334 196.707 181.609 195.55 181.313 193.683C181.041 191.964 179.643 191.185 179.172 190.946C177.982 190.342 176.172 189.986 174.051 189.714H174.052C168.309 188.956 158.602 188.444 152.635 187.839L152.627 187.838L152.62 187.837L148.966 187.485C145.516 187.181 142.185 187.043 138.717 187.715L138.264 187.807C135.312 188.425 132.534 189.485 129.97 190.517C127.33 191.579 124.966 192.588 122.519 193.322L122.49 193.331L122.463 193.34C116.667 195.203 111.106 196.347 105.101 196.53L105.044 196.532C101.884 196.689 99.214 196.529 97.1309 196.069C95.0144 195.602 93.7905 194.89 93.1572 194.186C92.628 193.597 92.2617 192.744 92.4873 191.199C92.7294 189.542 93.6539 187.206 95.7324 184.079C98.1386 180.671 101.885 178.684 106.593 177.3C108.943 176.609 111.446 176.093 114.039 175.609C116.564 175.138 119.255 174.682 121.764 174.14C124.416 173.658 127.131 172.968 129.579 172.416C132.121 171.843 134.52 171.383 136.893 171.243L136.897 171.242C139.116 171.107 141.376 171.322 143.86 171.612C146.27 171.893 148.961 172.255 151.669 172.284C160.409 172.419 170.05 169.549 178.166 167.451L178.213 167.439L178.26 167.426C180.237 166.846 183.108 165.967 185.307 164.417C186.446 163.614 187.578 162.514 188.272 161.011C188.994 159.448 189.124 157.703 188.65 155.881C187.975 152.865 186.162 149.48 184.038 146.124C181.842 142.654 179.091 138.875 176.354 135.113C173.589 131.314 170.826 127.515 168.491 123.877C166.141 120.216 164.34 116.893 163.412 114.063L163.396 114.014L163.378 113.965L163.258 113.612C162.694 111.83 162.669 109.715 163.182 108.155C163.447 107.35 163.8 106.852 164.125 106.578C164.381 106.362 164.721 106.195 165.278 106.187Z" fill="#333333" stroke="#F9F9F9" stroke-width="6"/>
<path d="M157.335 176.435C167.798 176.435 176.28 162.999 176.28 146.424C176.28 129.849 167.798 116.413 157.335 116.413C146.872 116.413 138.39 129.849 138.39 146.424C138.39 162.999 146.872 176.435 157.335 176.435Z" fill="#F9F9F9"/>
<path d="M155.316 169.212C164.664 169.212 172.242 158.183 172.242 144.578C172.242 130.973 164.664 119.944 155.316 119.944C145.968 119.944 138.39 130.973 138.39 144.578C138.39 158.183 145.968 169.212 155.316 169.212Z" fill="#F9F9F9" stroke="#F9F9F9" stroke-width="6" stroke-miterlimit="10"/>
<path d="M157.27 170.735C163.414 170.735 170.906 155.29 170.906 145.975C170.906 136.661 163.414 124.086 157.27 124.086C151.126 124.086 141.84 132.713 141.84 142.028C141.84 151.343 151.126 170.735 157.27 170.735Z" fill="#333333" stroke="#333333" stroke-width="6" stroke-miterlimit="10"/>
<path d="M119.44 164.906C129.903 164.906 138.385 151.469 138.385 134.894C138.385 118.319 129.903 104.883 119.44 104.883C108.977 104.883 100.495 118.319 100.495 134.894C100.495 151.469 108.977 164.906 119.44 164.906Z" fill="#F9F9F9" stroke="#F9F9F9" stroke-width="6" stroke-miterlimit="10"/>
<path d="M117.421 157.682C126.769 157.682 134.348 146.653 134.348 133.048C134.348 119.443 126.769 108.414 117.421 108.414C108.073 108.414 100.495 119.443 100.495 133.048C100.495 146.653 108.073 157.682 117.421 157.682Z" fill="#F9F9F9" stroke="#F9F9F9" stroke-width="6" stroke-miterlimit="10"/>
<path d="M120.106 162.841C127.097 162.841 135.381 139.281 135.381 133.426C135.381 127.571 127.097 106.862 120.106 106.862C113.115 106.862 102.368 125.327 102.368 133.426C102.368 138.933 113.115 162.841 120.106 162.841Z" fill="#333333" stroke="#333333" stroke-width="6" stroke-miterlimit="10"/>
<path d="M156.871 142.923C156.901 142.953 156.931 144.174 157.173 146.036C157.262 146.725 157.837 146.762 158.147 146.623C158.457 146.485 158.626 146.135 158.496 146.12C157.855 146.046 157.026 147.91 156.382 149.378C156.197 149.712 156.302 149.213 156.36 148.134C156.419 147.055 156.427 145.412 156.483 143.549" stroke="#EDEDED" stroke-width="18" stroke-linecap="round"/>
<path d="M119.31 134.259C119.31 134.228 119.312 136.421 119.374 139.536C119.392 140.445 119.549 139.983 119.618 139.401C119.704 138.131 119.529 136.86 119.2 135.795C119.064 135.292 118.989 134.863 118.715 133.642" stroke="#EDEDED" stroke-width="18" stroke-linecap="round"/>
</g>
<defs>
<clipPath id="clip0_187_572">
<rect width="262.672" height="286.355" fill="white" transform="translate(0.456543 0.644531)"/>
</clipPath>
</defs>
</svg>
